<svg width="26" height="32" viewBox="0 0 26 32" fill="none" xmlns="http://www.w3.org/2000/svg">
<path d="M9.07635 6.72288L12.9258 22.3853H13.23L16.8359 6.72288L21.4978 19.2868L17.55 31.5H8.45L4.45804 19.2868L9.07635 6.72288Z" fill="white"/>
<path d="M1.27176 0.859121C0.633613 0.678921 0 1.15839 0 1.82149V25.8409C0 26.9591 1.55576 27.2343 1.93932 26.1839L9.89081 4.40987C10.0904 3.86339 9.78311 3.26258 9.22323 3.10448L1.27176 0.859121Z" fill="#7538F8"/>
<path d="M24.0617 26.2419C24.4479 27.2895 26 27.0125 26 25.8961V1.95059C26 1.29416 25.3782 0.815766 24.7437 0.983986L16.7026 3.11583C16.1329 3.26686 15.8167 3.87532 16.0206 4.42831L24.0617 26.2419Z" fill="#7538F8"/>
</svg>
